%TF.GenerationSoftware,KiCad,Pcbnew,(5.1.9)-1*%
%TF.CreationDate,2021-09-28T19:48:16+01:00*%
%TF.ProjectId,PassiveModule,50617373-6976-4654-9d6f-64756c652e6b,rev?*%
%TF.SameCoordinates,Original*%
%TF.FileFunction,Legend,Top*%
%TF.FilePolarity,Positive*%
%FSLAX46Y46*%
G04 Gerber Fmt 4.6, Leading zero omitted, Abs format (unit mm)*
G04 Created by KiCad (PCBNEW (5.1.9)-1) date 2021-09-28 19:48:16*
%MOMM*%
%LPD*%
G01*
G04 APERTURE LIST*
%ADD10C,0.010000*%
G04 APERTURE END LIST*
D10*
%TO.C,G\u002A\u002A\u002A*%
G36*
X8825651Y-195514686D02*
G01*
X9326643Y-195517964D01*
X9714620Y-195530858D01*
X10008772Y-195558097D01*
X10228283Y-195604411D01*
X10392343Y-195674527D01*
X10520139Y-195773177D01*
X10630857Y-195905088D01*
X10676416Y-195970849D01*
X10730229Y-196058441D01*
X10769394Y-196150361D01*
X10796228Y-196268343D01*
X10813045Y-196434118D01*
X10822161Y-196669422D01*
X10825893Y-196995985D01*
X10826562Y-197379905D01*
X10826562Y-198564205D01*
X10479297Y-198544211D01*
X10132031Y-198524218D01*
X10065885Y-196275260D01*
X9189453Y-196256804D01*
X8313021Y-196238347D01*
X8313021Y-198557291D01*
X7993316Y-198557291D01*
X7797366Y-198548853D01*
X7660905Y-198527418D01*
X7629514Y-198513194D01*
X7616755Y-198437003D01*
X7605444Y-198248015D01*
X7596146Y-197965720D01*
X7589427Y-197609611D01*
X7585851Y-197199177D01*
X7585417Y-196991840D01*
X7585417Y-195514583D01*
X8825651Y-195514686D01*
G37*
X8825651Y-195514686D02*
X9326643Y-195517964D01*
X9714620Y-195530858D01*
X10008772Y-195558097D01*
X10228283Y-195604411D01*
X10392343Y-195674527D01*
X10520139Y-195773177D01*
X10630857Y-195905088D01*
X10676416Y-195970849D01*
X10730229Y-196058441D01*
X10769394Y-196150361D01*
X10796228Y-196268343D01*
X10813045Y-196434118D01*
X10822161Y-196669422D01*
X10825893Y-196995985D01*
X10826562Y-197379905D01*
X10826562Y-198564205D01*
X10479297Y-198544211D01*
X10132031Y-198524218D01*
X10065885Y-196275260D01*
X9189453Y-196256804D01*
X8313021Y-196238347D01*
X8313021Y-198557291D01*
X7993316Y-198557291D01*
X7797366Y-198548853D01*
X7660905Y-198527418D01*
X7629514Y-198513194D01*
X7616755Y-198437003D01*
X7605444Y-198248015D01*
X7596146Y-197965720D01*
X7589427Y-197609611D01*
X7585851Y-197199177D01*
X7585417Y-196991840D01*
X7585417Y-195514583D01*
X8825651Y-195514686D01*
G36*
X13803125Y-196242187D02*
G01*
X12857240Y-196242187D01*
X12416292Y-196247358D01*
X12101416Y-196263172D01*
X11906785Y-196290079D01*
X11831979Y-196321562D01*
X11789722Y-196434770D01*
X11762826Y-196667238D01*
X11752655Y-197006676D01*
X11752604Y-197035937D01*
X11761473Y-197382860D01*
X11787169Y-197623730D01*
X11828328Y-197746257D01*
X11831979Y-197750312D01*
X11930169Y-197786881D01*
X12143711Y-197811977D01*
X12478433Y-197826052D01*
X12857240Y-197829687D01*
X13803125Y-197829687D01*
X13803125Y-198557291D01*
X12860547Y-198551326D01*
X12502487Y-198545022D01*
X12175809Y-198531885D01*
X11911290Y-198513670D01*
X11739707Y-198492136D01*
X11712617Y-198485782D01*
X11445524Y-198345802D01*
X11222851Y-198112264D01*
X11083438Y-197830044D01*
X11052548Y-197648220D01*
X11034258Y-197371431D01*
X11030438Y-197036568D01*
X11034392Y-196863145D01*
X11049474Y-196528220D01*
X11071411Y-196294825D01*
X11105900Y-196132205D01*
X11158633Y-196009603D01*
X11206094Y-195935814D01*
X11328547Y-195786720D01*
X11467346Y-195676787D01*
X11644009Y-195600344D01*
X11880055Y-195551720D01*
X12197003Y-195525243D01*
X12616370Y-195515243D01*
X12804398Y-195514583D01*
X13803125Y-195514583D01*
X13803125Y-196242187D01*
G37*
X13803125Y-196242187D02*
X12857240Y-196242187D01*
X12416292Y-196247358D01*
X12101416Y-196263172D01*
X11906785Y-196290079D01*
X11831979Y-196321562D01*
X11789722Y-196434770D01*
X11762826Y-196667238D01*
X11752655Y-197006676D01*
X11752604Y-197035937D01*
X11761473Y-197382860D01*
X11787169Y-197623730D01*
X11828328Y-197746257D01*
X11831979Y-197750312D01*
X11930169Y-197786881D01*
X12143711Y-197811977D01*
X12478433Y-197826052D01*
X12857240Y-197829687D01*
X13803125Y-197829687D01*
X13803125Y-198557291D01*
X12860547Y-198551326D01*
X12502487Y-198545022D01*
X12175809Y-198531885D01*
X11911290Y-198513670D01*
X11739707Y-198492136D01*
X11712617Y-198485782D01*
X11445524Y-198345802D01*
X11222851Y-198112264D01*
X11083438Y-197830044D01*
X11052548Y-197648220D01*
X11034258Y-197371431D01*
X11030438Y-197036568D01*
X11034392Y-196863145D01*
X11049474Y-196528220D01*
X11071411Y-196294825D01*
X11105900Y-196132205D01*
X11158633Y-196009603D01*
X11206094Y-195935814D01*
X11328547Y-195786720D01*
X11467346Y-195676787D01*
X11644009Y-195600344D01*
X11880055Y-195551720D01*
X12197003Y-195525243D01*
X12616370Y-195515243D01*
X12804398Y-195514583D01*
X13803125Y-195514583D01*
X13803125Y-196242187D01*
G36*
X17507292Y-196239448D02*
G01*
X16174987Y-196257354D01*
X15717338Y-196264601D01*
X15374398Y-196273443D01*
X15128585Y-196285529D01*
X14962315Y-196302512D01*
X14858006Y-196326042D01*
X14798075Y-196357770D01*
X14770874Y-196389195D01*
X14729452Y-196485136D01*
X14750728Y-196558410D01*
X14847812Y-196612773D01*
X15033816Y-196651984D01*
X15321851Y-196679801D01*
X15725030Y-196699984D01*
X15873323Y-196705208D01*
X16343221Y-196726755D01*
X16700262Y-196756443D01*
X16937398Y-196793541D01*
X17031274Y-196825185D01*
X17247605Y-197018939D01*
X17386370Y-197286431D01*
X17441035Y-197589793D01*
X17405066Y-197891159D01*
X17271931Y-198152661D01*
X17262333Y-198164335D01*
X17146029Y-198290434D01*
X17023953Y-198386468D01*
X16876713Y-198456467D01*
X16684917Y-198504460D01*
X16429172Y-198534474D01*
X16090086Y-198550538D01*
X15648266Y-198556681D01*
X15370701Y-198557291D01*
X14971779Y-198555113D01*
X14618948Y-198549047D01*
X14333266Y-198539793D01*
X14135788Y-198528052D01*
X14047572Y-198514526D01*
X14045660Y-198513194D01*
X14019796Y-198426156D01*
X14003930Y-198254884D01*
X14001563Y-198149392D01*
X14001563Y-197829687D01*
X15322152Y-197829687D01*
X15773040Y-197828947D01*
X16109582Y-197825628D01*
X16349724Y-197818079D01*
X16511407Y-197804652D01*
X16612576Y-197783695D01*
X16671174Y-197753561D01*
X16705144Y-197712598D01*
X16711083Y-197701989D01*
X16739944Y-197568764D01*
X16675613Y-197470478D01*
X16609110Y-197427553D01*
X16495978Y-197397847D01*
X16315032Y-197379224D01*
X16045088Y-197369544D01*
X15664961Y-197366670D01*
X15647199Y-197366666D01*
X15216055Y-197361836D01*
X14893489Y-197343328D01*
X14656006Y-197305118D01*
X14480114Y-197241181D01*
X14342320Y-197145492D01*
X14219130Y-197012027D01*
X14207579Y-196997475D01*
X14063296Y-196716667D01*
X14032948Y-196411333D01*
X14109626Y-196110773D01*
X14286420Y-195844290D01*
X14523205Y-195659051D01*
X14617601Y-195610250D01*
X14716427Y-195573848D01*
X14839937Y-195548041D01*
X15008383Y-195531022D01*
X15242018Y-195520986D01*
X15561094Y-195516127D01*
X15985866Y-195514641D01*
X16143772Y-195514583D01*
X17507292Y-195514583D01*
X17507292Y-196239448D01*
G37*
X17507292Y-196239448D02*
X16174987Y-196257354D01*
X15717338Y-196264601D01*
X15374398Y-196273443D01*
X15128585Y-196285529D01*
X14962315Y-196302512D01*
X14858006Y-196326042D01*
X14798075Y-196357770D01*
X14770874Y-196389195D01*
X14729452Y-196485136D01*
X14750728Y-196558410D01*
X14847812Y-196612773D01*
X15033816Y-196651984D01*
X15321851Y-196679801D01*
X15725030Y-196699984D01*
X15873323Y-196705208D01*
X16343221Y-196726755D01*
X16700262Y-196756443D01*
X16937398Y-196793541D01*
X17031274Y-196825185D01*
X17247605Y-197018939D01*
X17386370Y-197286431D01*
X17441035Y-197589793D01*
X17405066Y-197891159D01*
X17271931Y-198152661D01*
X17262333Y-198164335D01*
X17146029Y-198290434D01*
X17023953Y-198386468D01*
X16876713Y-198456467D01*
X16684917Y-198504460D01*
X16429172Y-198534474D01*
X16090086Y-198550538D01*
X15648266Y-198556681D01*
X15370701Y-198557291D01*
X14971779Y-198555113D01*
X14618948Y-198549047D01*
X14333266Y-198539793D01*
X14135788Y-198528052D01*
X14047572Y-198514526D01*
X14045660Y-198513194D01*
X14019796Y-198426156D01*
X14003930Y-198254884D01*
X14001563Y-198149392D01*
X14001563Y-197829687D01*
X15322152Y-197829687D01*
X15773040Y-197828947D01*
X16109582Y-197825628D01*
X16349724Y-197818079D01*
X16511407Y-197804652D01*
X16612576Y-197783695D01*
X16671174Y-197753561D01*
X16705144Y-197712598D01*
X16711083Y-197701989D01*
X16739944Y-197568764D01*
X16675613Y-197470478D01*
X16609110Y-197427553D01*
X16495978Y-197397847D01*
X16315032Y-197379224D01*
X16045088Y-197369544D01*
X15664961Y-197366670D01*
X15647199Y-197366666D01*
X15216055Y-197361836D01*
X14893489Y-197343328D01*
X14656006Y-197305118D01*
X14480114Y-197241181D01*
X14342320Y-197145492D01*
X14219130Y-197012027D01*
X14207579Y-196997475D01*
X14063296Y-196716667D01*
X14032948Y-196411333D01*
X14109626Y-196110773D01*
X14286420Y-195844290D01*
X14523205Y-195659051D01*
X14617601Y-195610250D01*
X14716427Y-195573848D01*
X14839937Y-195548041D01*
X15008383Y-195531022D01*
X15242018Y-195520986D01*
X15561094Y-195516127D01*
X15985866Y-195514641D01*
X16143772Y-195514583D01*
X17507292Y-195514583D01*
X17507292Y-196239448D01*
G36*
X4074505Y-9459310D02*
G01*
X4547979Y-9466222D01*
X4907490Y-9473461D01*
X5171352Y-9483117D01*
X5357884Y-9497278D01*
X5485400Y-9518031D01*
X5572216Y-9547465D01*
X5636650Y-9587669D01*
X5697018Y-9640730D01*
X5701363Y-9644791D01*
X5826632Y-9770806D01*
X5919323Y-9895795D01*
X5984291Y-10041855D01*
X6026394Y-10231081D01*
X6050485Y-10485566D01*
X6061423Y-10827407D01*
X6064061Y-11278699D01*
X6064062Y-11295152D01*
X6064062Y-12422916D01*
X5339657Y-12422916D01*
X5321521Y-11314973D01*
X5303385Y-10207031D01*
X4989193Y-10186870D01*
X4675000Y-10166709D01*
X4675000Y-12422916D01*
X3947396Y-12422916D01*
X3947396Y-10173958D01*
X3265715Y-10173958D01*
X3311363Y-11298437D01*
X3357010Y-12422916D01*
X2624479Y-12422916D01*
X2624479Y-9439193D01*
X4074505Y-9459310D01*
G37*
X4074505Y-9459310D02*
X4547979Y-9466222D01*
X4907490Y-9473461D01*
X5171352Y-9483117D01*
X5357884Y-9497278D01*
X5485400Y-9518031D01*
X5572216Y-9547465D01*
X5636650Y-9587669D01*
X5697018Y-9640730D01*
X5701363Y-9644791D01*
X5826632Y-9770806D01*
X5919323Y-9895795D01*
X5984291Y-10041855D01*
X6026394Y-10231081D01*
X6050485Y-10485566D01*
X6061423Y-10827407D01*
X6064061Y-11278699D01*
X6064062Y-11295152D01*
X6064062Y-12422916D01*
X5339657Y-12422916D01*
X5321521Y-11314973D01*
X5303385Y-10207031D01*
X4989193Y-10186870D01*
X4675000Y-10166709D01*
X4675000Y-12422916D01*
X3947396Y-12422916D01*
X3947396Y-10173958D01*
X3265715Y-10173958D01*
X3311363Y-11298437D01*
X3357010Y-12422916D01*
X2624479Y-12422916D01*
X2624479Y-9439193D01*
X4074505Y-9459310D01*
G36*
X8480197Y-9451446D02*
G01*
X8833401Y-9469297D01*
X9095444Y-9506491D01*
X9286795Y-9569115D01*
X9427923Y-9663259D01*
X9539296Y-9795011D01*
X9616058Y-9922986D01*
X9682971Y-10125808D01*
X9726234Y-10420342D01*
X9746128Y-10769334D01*
X9742937Y-11135533D01*
X9716942Y-11481686D01*
X9668427Y-11770542D01*
X9600614Y-11959895D01*
X9492255Y-12119844D01*
X9365575Y-12238836D01*
X9200238Y-12322664D01*
X8975909Y-12377119D01*
X8672252Y-12407996D01*
X8268933Y-12421087D01*
X7975537Y-12422813D01*
X7580126Y-12421619D01*
X7293051Y-12416039D01*
X7090366Y-12403214D01*
X6948124Y-12380285D01*
X6842378Y-12344393D01*
X6749182Y-12292680D01*
X6718766Y-12272770D01*
X6538030Y-12128022D01*
X6410307Y-11957967D01*
X6327453Y-11738108D01*
X6281320Y-11443943D01*
X6263764Y-11050975D01*
X6263000Y-10925938D01*
X6990104Y-10925938D01*
X6994144Y-11213981D01*
X7005047Y-11450865D01*
X7020987Y-11606567D01*
X7034201Y-11651215D01*
X7112872Y-11667022D01*
X7298861Y-11680320D01*
X7567203Y-11689990D01*
X7892931Y-11694916D01*
X8019312Y-11695312D01*
X8397888Y-11693320D01*
X8664243Y-11685920D01*
X8838409Y-11670977D01*
X8940416Y-11646353D01*
X8990295Y-11609914D01*
X9000475Y-11590683D01*
X9023857Y-11459501D01*
X9036524Y-11242772D01*
X9039178Y-10979217D01*
X9032520Y-10707558D01*
X9017253Y-10466517D01*
X8994077Y-10294816D01*
X8976005Y-10240104D01*
X8885689Y-10196816D01*
X8694061Y-10160866D01*
X8431957Y-10133409D01*
X8130212Y-10115595D01*
X7819661Y-10108579D01*
X7531139Y-10113513D01*
X7295482Y-10131550D01*
X7143525Y-10163843D01*
X7127908Y-10171008D01*
X7065510Y-10215326D01*
X7025352Y-10285477D01*
X7002613Y-10407874D01*
X6992471Y-10608929D01*
X6990105Y-10915055D01*
X6990104Y-10925938D01*
X6263000Y-10925938D01*
X6262850Y-10901562D01*
X6272859Y-10485016D01*
X6308754Y-10174597D01*
X6379611Y-9945211D01*
X6494506Y-9771766D01*
X6662514Y-9629169D01*
X6741453Y-9578288D01*
X6836828Y-9528116D01*
X6947491Y-9492460D01*
X7096783Y-9468914D01*
X7308046Y-9455069D01*
X7604620Y-9448517D01*
X8009847Y-9446848D01*
X8015365Y-9446848D01*
X8480197Y-9451446D01*
G37*
X8480197Y-9451446D02*
X8833401Y-9469297D01*
X9095444Y-9506491D01*
X9286795Y-9569115D01*
X9427923Y-9663259D01*
X9539296Y-9795011D01*
X9616058Y-9922986D01*
X9682971Y-10125808D01*
X9726234Y-10420342D01*
X9746128Y-10769334D01*
X9742937Y-11135533D01*
X9716942Y-11481686D01*
X9668427Y-11770542D01*
X9600614Y-11959895D01*
X9492255Y-12119844D01*
X9365575Y-12238836D01*
X9200238Y-12322664D01*
X8975909Y-12377119D01*
X8672252Y-12407996D01*
X8268933Y-12421087D01*
X7975537Y-12422813D01*
X7580126Y-12421619D01*
X7293051Y-12416039D01*
X7090366Y-12403214D01*
X6948124Y-12380285D01*
X6842378Y-12344393D01*
X6749182Y-12292680D01*
X6718766Y-12272770D01*
X6538030Y-12128022D01*
X6410307Y-11957967D01*
X6327453Y-11738108D01*
X6281320Y-11443943D01*
X6263764Y-11050975D01*
X6263000Y-10925938D01*
X6990104Y-10925938D01*
X6994144Y-11213981D01*
X7005047Y-11450865D01*
X7020987Y-11606567D01*
X7034201Y-11651215D01*
X7112872Y-11667022D01*
X7298861Y-11680320D01*
X7567203Y-11689990D01*
X7892931Y-11694916D01*
X8019312Y-11695312D01*
X8397888Y-11693320D01*
X8664243Y-11685920D01*
X8838409Y-11670977D01*
X8940416Y-11646353D01*
X8990295Y-11609914D01*
X9000475Y-11590683D01*
X9023857Y-11459501D01*
X9036524Y-11242772D01*
X9039178Y-10979217D01*
X9032520Y-10707558D01*
X9017253Y-10466517D01*
X8994077Y-10294816D01*
X8976005Y-10240104D01*
X8885689Y-10196816D01*
X8694061Y-10160866D01*
X8431957Y-10133409D01*
X8130212Y-10115595D01*
X7819661Y-10108579D01*
X7531139Y-10113513D01*
X7295482Y-10131550D01*
X7143525Y-10163843D01*
X7127908Y-10171008D01*
X7065510Y-10215326D01*
X7025352Y-10285477D01*
X7002613Y-10407874D01*
X6992471Y-10608929D01*
X6990105Y-10915055D01*
X6990104Y-10925938D01*
X6263000Y-10925938D01*
X6262850Y-10901562D01*
X6272859Y-10485016D01*
X6308754Y-10174597D01*
X6379611Y-9945211D01*
X6494506Y-9771766D01*
X6662514Y-9629169D01*
X6741453Y-9578288D01*
X6836828Y-9528116D01*
X6947491Y-9492460D01*
X7096783Y-9468914D01*
X7308046Y-9455069D01*
X7604620Y-9448517D01*
X8009847Y-9446848D01*
X8015365Y-9446848D01*
X8480197Y-9451446D01*
G36*
X12867912Y-9701766D02*
G01*
X12984199Y-9822370D01*
X13060496Y-9926606D01*
X13107858Y-10048005D01*
X13137336Y-10220097D01*
X13159986Y-10476413D01*
X13170238Y-10618895D01*
X13191235Y-11070879D01*
X13179420Y-11420967D01*
X13131467Y-11696224D01*
X13044052Y-11923718D01*
X13000283Y-12002463D01*
X12905894Y-12138277D01*
X12795359Y-12241661D01*
X12650226Y-12316914D01*
X12452042Y-12368340D01*
X12182355Y-12400241D01*
X11822713Y-12416919D01*
X11354663Y-12422675D01*
X11196904Y-12422916D01*
X9966667Y-12422916D01*
X9966667Y-11341213D01*
X9963995Y-10939065D01*
X9956633Y-10549078D01*
X9945561Y-10205591D01*
X9940424Y-10107812D01*
X10628125Y-10107812D01*
X10628125Y-11695312D01*
X11474792Y-11695312D01*
X11898954Y-11688910D01*
X12194150Y-11669551D01*
X12363090Y-11637001D01*
X12400833Y-11615937D01*
X12443286Y-11503002D01*
X12470305Y-11273236D01*
X12480193Y-10941382D01*
X12480208Y-10926130D01*
X12477627Y-10616921D01*
X12456980Y-10397439D01*
X12398917Y-10252309D01*
X12284086Y-10166156D01*
X12093134Y-10123604D01*
X11806709Y-10109279D01*
X11450223Y-10107812D01*
X10628125Y-10107812D01*
X9940424Y-10107812D01*
X9931760Y-9942943D01*
X9924171Y-9852932D01*
X9881675Y-9446354D01*
X12612500Y-9446354D01*
X12867912Y-9701766D01*
G37*
X12867912Y-9701766D02*
X12984199Y-9822370D01*
X13060496Y-9926606D01*
X13107858Y-10048005D01*
X13137336Y-10220097D01*
X13159986Y-10476413D01*
X13170238Y-10618895D01*
X13191235Y-11070879D01*
X13179420Y-11420967D01*
X13131467Y-11696224D01*
X13044052Y-11923718D01*
X13000283Y-12002463D01*
X12905894Y-12138277D01*
X12795359Y-12241661D01*
X12650226Y-12316914D01*
X12452042Y-12368340D01*
X12182355Y-12400241D01*
X11822713Y-12416919D01*
X11354663Y-12422675D01*
X11196904Y-12422916D01*
X9966667Y-12422916D01*
X9966667Y-11341213D01*
X9963995Y-10939065D01*
X9956633Y-10549078D01*
X9945561Y-10205591D01*
X9940424Y-10107812D01*
X10628125Y-10107812D01*
X10628125Y-11695312D01*
X11474792Y-11695312D01*
X11898954Y-11688910D01*
X12194150Y-11669551D01*
X12363090Y-11637001D01*
X12400833Y-11615937D01*
X12443286Y-11503002D01*
X12470305Y-11273236D01*
X12480193Y-10941382D01*
X12480208Y-10926130D01*
X12477627Y-10616921D01*
X12456980Y-10397439D01*
X12398917Y-10252309D01*
X12284086Y-10166156D01*
X12093134Y-10123604D01*
X11806709Y-10109279D01*
X11450223Y-10107812D01*
X10628125Y-10107812D01*
X9940424Y-10107812D01*
X9931760Y-9942943D01*
X9924171Y-9852932D01*
X9881675Y-9446354D01*
X12612500Y-9446354D01*
X12867912Y-9701766D01*
G36*
X16596865Y-10223567D02*
G01*
X16604141Y-10760168D01*
X16601059Y-11181947D01*
X16583572Y-11506223D01*
X16547631Y-11750315D01*
X16489189Y-11931543D01*
X16404198Y-12067224D01*
X16288608Y-12174680D01*
X16138373Y-12271227D01*
X16115181Y-12284390D01*
X16017830Y-12333558D01*
X15912182Y-12369558D01*
X15776643Y-12394413D01*
X15589623Y-12410148D01*
X15329530Y-12418786D01*
X14974773Y-12422352D01*
X14637478Y-12422916D01*
X13406250Y-12422916D01*
X13406250Y-11540109D01*
X13402703Y-11139931D01*
X13393070Y-10719758D01*
X13378864Y-10331955D01*
X13363272Y-10051828D01*
X13320294Y-9446354D01*
X14067708Y-9446354D01*
X14067708Y-11695312D01*
X14914375Y-11695312D01*
X15338537Y-11688910D01*
X15633733Y-11669551D01*
X15802673Y-11637001D01*
X15840417Y-11615937D01*
X15874301Y-11526508D01*
X15898419Y-11330834D01*
X15913314Y-11020987D01*
X15919530Y-10589040D01*
X15919792Y-10458385D01*
X15919792Y-9380208D01*
X16581250Y-9380208D01*
X16596865Y-10223567D01*
G37*
X16596865Y-10223567D02*
X16604141Y-10760168D01*
X16601059Y-11181947D01*
X16583572Y-11506223D01*
X16547631Y-11750315D01*
X16489189Y-11931543D01*
X16404198Y-12067224D01*
X16288608Y-12174680D01*
X16138373Y-12271227D01*
X16115181Y-12284390D01*
X16017830Y-12333558D01*
X15912182Y-12369558D01*
X15776643Y-12394413D01*
X15589623Y-12410148D01*
X15329530Y-12418786D01*
X14974773Y-12422352D01*
X14637478Y-12422916D01*
X13406250Y-12422916D01*
X13406250Y-11540109D01*
X13402703Y-11139931D01*
X13393070Y-10719758D01*
X13378864Y-10331955D01*
X13363272Y-10051828D01*
X13320294Y-9446354D01*
X14067708Y-9446354D01*
X14067708Y-11695312D01*
X14914375Y-11695312D01*
X15338537Y-11688910D01*
X15633733Y-11669551D01*
X15802673Y-11637001D01*
X15840417Y-11615937D01*
X15874301Y-11526508D01*
X15898419Y-11330834D01*
X15913314Y-11020987D01*
X15919530Y-10589040D01*
X15919792Y-10458385D01*
X15919792Y-9380208D01*
X16581250Y-9380208D01*
X16596865Y-10223567D01*
G36*
X17507292Y-11695312D02*
G01*
X19630872Y-11695312D01*
X19610879Y-12042578D01*
X19590885Y-12389843D01*
X18228315Y-12407691D01*
X16865745Y-12425540D01*
X16818744Y-10969131D01*
X16806822Y-10541421D01*
X16799691Y-10157324D01*
X16797433Y-9836849D01*
X16800125Y-9600010D01*
X16807848Y-9466818D01*
X16812691Y-9446465D01*
X16897503Y-9408021D01*
X17067768Y-9384113D01*
X17180466Y-9380208D01*
X17507292Y-9380208D01*
X17507292Y-11695312D01*
G37*
X17507292Y-11695312D02*
X19630872Y-11695312D01*
X19610879Y-12042578D01*
X19590885Y-12389843D01*
X18228315Y-12407691D01*
X16865745Y-12425540D01*
X16818744Y-10969131D01*
X16806822Y-10541421D01*
X16799691Y-10157324D01*
X16797433Y-9836849D01*
X16800125Y-9600010D01*
X16807848Y-9466818D01*
X16812691Y-9446465D01*
X16897503Y-9408021D01*
X17067768Y-9384113D01*
X17180466Y-9380208D01*
X17507292Y-9380208D01*
X17507292Y-11695312D01*
G36*
X22534375Y-10107812D02*
G01*
X20475472Y-10107812D01*
X20496200Y-10322786D01*
X20516927Y-10537760D01*
X22435156Y-10537760D01*
X22455087Y-10883238D01*
X22475019Y-11228716D01*
X20516927Y-11265364D01*
X20496200Y-11480338D01*
X20475472Y-11695312D01*
X22607434Y-11695312D01*
X22587441Y-12042578D01*
X22567448Y-12389843D01*
X21194922Y-12407722D01*
X19822396Y-12425600D01*
X19822396Y-9380208D01*
X22534375Y-9380208D01*
X22534375Y-10107812D01*
G37*
X22534375Y-10107812D02*
X20475472Y-10107812D01*
X20496200Y-10322786D01*
X20516927Y-10537760D01*
X22435156Y-10537760D01*
X22455087Y-10883238D01*
X22475019Y-11228716D01*
X20516927Y-11265364D01*
X20496200Y-11480338D01*
X20475472Y-11695312D01*
X22607434Y-11695312D01*
X22587441Y-12042578D01*
X22567448Y-12389843D01*
X21194922Y-12407722D01*
X19822396Y-12425600D01*
X19822396Y-9380208D01*
X22534375Y-9380208D01*
X22534375Y-10107812D01*
G36*
X2971745Y-5543997D02*
G01*
X3420113Y-5545235D01*
X3756696Y-5549940D01*
X4001992Y-5559899D01*
X4176495Y-5576897D01*
X4300703Y-5602719D01*
X4395111Y-5639150D01*
X4456815Y-5673363D01*
X4694336Y-5886697D01*
X4836853Y-6158938D01*
X4885264Y-6460361D01*
X4840472Y-6761242D01*
X4703374Y-7031856D01*
X4474872Y-7242478D01*
X4408167Y-7279975D01*
X4283482Y-7329589D01*
X4123958Y-7363315D01*
X3903859Y-7383798D01*
X3597451Y-7393680D01*
X3281259Y-7395730D01*
X2383611Y-7395833D01*
X2413121Y-7958072D01*
X2442631Y-8520312D01*
X1698438Y-8520312D01*
X1698438Y-6271354D01*
X2359896Y-6271354D01*
X2359896Y-6668229D01*
X3211692Y-6668229D01*
X3593159Y-6664349D01*
X3860314Y-6651548D01*
X4030944Y-6628083D01*
X4122832Y-6592213D01*
X4138875Y-6577394D01*
X4183462Y-6444020D01*
X4172971Y-6378956D01*
X4138991Y-6334741D01*
X4062961Y-6304317D01*
X3923969Y-6285259D01*
X3701105Y-6275138D01*
X3373460Y-6271530D01*
X3245788Y-6271354D01*
X2359896Y-6271354D01*
X1698438Y-6271354D01*
X1698438Y-5543750D01*
X2971745Y-5543997D01*
G37*
X2971745Y-5543997D02*
X3420113Y-5545235D01*
X3756696Y-5549940D01*
X4001992Y-5559899D01*
X4176495Y-5576897D01*
X4300703Y-5602719D01*
X4395111Y-5639150D01*
X4456815Y-5673363D01*
X4694336Y-5886697D01*
X4836853Y-6158938D01*
X4885264Y-6460361D01*
X4840472Y-6761242D01*
X4703374Y-7031856D01*
X4474872Y-7242478D01*
X4408167Y-7279975D01*
X4283482Y-7329589D01*
X4123958Y-7363315D01*
X3903859Y-7383798D01*
X3597451Y-7393680D01*
X3281259Y-7395730D01*
X2383611Y-7395833D01*
X2413121Y-7958072D01*
X2442631Y-8520312D01*
X1698438Y-8520312D01*
X1698438Y-6271354D01*
X2359896Y-6271354D01*
X2359896Y-6668229D01*
X3211692Y-6668229D01*
X3593159Y-6664349D01*
X3860314Y-6651548D01*
X4030944Y-6628083D01*
X4122832Y-6592213D01*
X4138875Y-6577394D01*
X4183462Y-6444020D01*
X4172971Y-6378956D01*
X4138991Y-6334741D01*
X4062961Y-6304317D01*
X3923969Y-6285259D01*
X3701105Y-6275138D01*
X3373460Y-6271530D01*
X3245788Y-6271354D01*
X2359896Y-6271354D01*
X1698438Y-6271354D01*
X1698438Y-5543750D01*
X2971745Y-5543997D01*
G36*
X7038129Y-5553772D02*
G01*
X7200132Y-5593581D01*
X7346939Y-5678595D01*
X7494920Y-5823980D01*
X7660444Y-6044905D01*
X7859881Y-6356539D01*
X8033988Y-6646143D01*
X8576736Y-7561197D01*
X8577170Y-8040755D01*
X8577604Y-8520312D01*
X7850000Y-8520312D01*
X7850000Y-8121110D01*
X7825878Y-7802987D01*
X7756778Y-7581622D01*
X7743174Y-7558870D01*
X7692089Y-7489785D01*
X7629543Y-7443612D01*
X7530265Y-7415740D01*
X7368983Y-7401561D01*
X7120426Y-7396466D01*
X6849233Y-7395833D01*
X6062118Y-7395833D01*
X5936428Y-7602513D01*
X5858551Y-7773896D01*
X5835250Y-7970922D01*
X5847436Y-8164752D01*
X5884133Y-8520312D01*
X5138021Y-8520312D01*
X5138021Y-8037987D01*
X5139706Y-7852166D01*
X5151268Y-7702623D01*
X5182467Y-7563347D01*
X5243063Y-7408325D01*
X5342816Y-7211547D01*
X5491486Y-6947001D01*
X5650651Y-6671763D01*
X5683442Y-6616801D01*
X6527083Y-6616801D01*
X6586595Y-6646142D01*
X6738751Y-6664762D01*
X6857812Y-6668229D01*
X7046506Y-6658975D01*
X7166251Y-6635315D01*
X7188542Y-6616801D01*
X7139182Y-6489759D01*
X7024897Y-6359250D01*
X6896382Y-6278224D01*
X6857812Y-6271354D01*
X6736183Y-6322910D01*
X6611235Y-6442281D01*
X6533661Y-6576515D01*
X6527083Y-6616801D01*
X5683442Y-6616801D01*
X5887665Y-6274508D01*
X6082470Y-5981115D01*
X6250941Y-5776588D01*
X6408953Y-5645930D01*
X6572383Y-5574146D01*
X6757105Y-5546240D01*
X6844561Y-5543997D01*
X7038129Y-5553772D01*
G37*
X7038129Y-5553772D02*
X7200132Y-5593581D01*
X7346939Y-5678595D01*
X7494920Y-5823980D01*
X7660444Y-6044905D01*
X7859881Y-6356539D01*
X8033988Y-6646143D01*
X8576736Y-7561197D01*
X8577170Y-8040755D01*
X8577604Y-8520312D01*
X7850000Y-8520312D01*
X7850000Y-8121110D01*
X7825878Y-7802987D01*
X7756778Y-7581622D01*
X7743174Y-7558870D01*
X7692089Y-7489785D01*
X7629543Y-7443612D01*
X7530265Y-7415740D01*
X7368983Y-7401561D01*
X7120426Y-7396466D01*
X6849233Y-7395833D01*
X6062118Y-7395833D01*
X5936428Y-7602513D01*
X5858551Y-7773896D01*
X5835250Y-7970922D01*
X5847436Y-8164752D01*
X5884133Y-8520312D01*
X5138021Y-8520312D01*
X5138021Y-8037987D01*
X5139706Y-7852166D01*
X5151268Y-7702623D01*
X5182467Y-7563347D01*
X5243063Y-7408325D01*
X5342816Y-7211547D01*
X5491486Y-6947001D01*
X5650651Y-6671763D01*
X5683442Y-6616801D01*
X6527083Y-6616801D01*
X6586595Y-6646142D01*
X6738751Y-6664762D01*
X6857812Y-6668229D01*
X7046506Y-6658975D01*
X7166251Y-6635315D01*
X7188542Y-6616801D01*
X7139182Y-6489759D01*
X7024897Y-6359250D01*
X6896382Y-6278224D01*
X6857812Y-6271354D01*
X6736183Y-6322910D01*
X6611235Y-6442281D01*
X6533661Y-6576515D01*
X6527083Y-6616801D01*
X5683442Y-6616801D01*
X5887665Y-6274508D01*
X6082470Y-5981115D01*
X6250941Y-5776588D01*
X6408953Y-5645930D01*
X6572383Y-5574146D01*
X6757105Y-5546240D01*
X6844561Y-5543997D01*
X7038129Y-5553772D01*
G36*
X12215625Y-6205208D02*
G01*
X10971497Y-6205208D01*
X10482386Y-6208056D01*
X10110966Y-6218607D01*
X9842719Y-6239867D01*
X9663126Y-6274845D01*
X9557670Y-6326549D01*
X9511833Y-6397987D01*
X9511097Y-6492166D01*
X9513748Y-6507236D01*
X9532242Y-6556204D01*
X9579208Y-6592030D01*
X9674347Y-6617739D01*
X9837357Y-6636353D01*
X10087939Y-6650896D01*
X10445792Y-6664392D01*
X10562737Y-6668229D01*
X10955046Y-6685569D01*
X11289902Y-6709462D01*
X11544692Y-6737764D01*
X11696800Y-6768331D01*
X11719531Y-6777910D01*
X11976759Y-6990798D01*
X12139910Y-7258998D01*
X12208894Y-7555350D01*
X12183619Y-7852694D01*
X12063994Y-8123872D01*
X11849928Y-8341724D01*
X11725029Y-8414051D01*
X11623606Y-8451457D01*
X11486360Y-8479301D01*
X11294448Y-8498844D01*
X11029032Y-8511349D01*
X10671271Y-8518077D01*
X10202325Y-8520290D01*
X10138571Y-8520312D01*
X8776042Y-8520312D01*
X8776042Y-7795447D01*
X11454948Y-7759635D01*
X11454948Y-7428906D01*
X10426455Y-7395833D01*
X9983169Y-7377813D01*
X9650492Y-7352130D01*
X9406751Y-7312554D01*
X9230271Y-7252854D01*
X9099378Y-7166800D01*
X8992397Y-7048160D01*
X8936371Y-6967484D01*
X8805674Y-6657953D01*
X8799753Y-6335555D01*
X8915281Y-6020438D01*
X9138741Y-5742187D01*
X9199490Y-5688191D01*
X9263080Y-5647192D01*
X9347827Y-5617102D01*
X9472047Y-5595834D01*
X9654057Y-5581297D01*
X9912172Y-5571405D01*
X10264709Y-5564069D01*
X10729984Y-5557200D01*
X10765599Y-5556706D01*
X12215625Y-5536589D01*
X12215625Y-6205208D01*
G37*
X12215625Y-6205208D02*
X10971497Y-6205208D01*
X10482386Y-6208056D01*
X10110966Y-6218607D01*
X9842719Y-6239867D01*
X9663126Y-6274845D01*
X9557670Y-6326549D01*
X9511833Y-6397987D01*
X9511097Y-6492166D01*
X9513748Y-6507236D01*
X9532242Y-6556204D01*
X9579208Y-6592030D01*
X9674347Y-6617739D01*
X9837357Y-6636353D01*
X10087939Y-6650896D01*
X10445792Y-6664392D01*
X10562737Y-6668229D01*
X10955046Y-6685569D01*
X11289902Y-6709462D01*
X11544692Y-6737764D01*
X11696800Y-6768331D01*
X11719531Y-6777910D01*
X11976759Y-6990798D01*
X12139910Y-7258998D01*
X12208894Y-7555350D01*
X12183619Y-7852694D01*
X12063994Y-8123872D01*
X11849928Y-8341724D01*
X11725029Y-8414051D01*
X11623606Y-8451457D01*
X11486360Y-8479301D01*
X11294448Y-8498844D01*
X11029032Y-8511349D01*
X10671271Y-8518077D01*
X10202325Y-8520290D01*
X10138571Y-8520312D01*
X8776042Y-8520312D01*
X8776042Y-7795447D01*
X11454948Y-7759635D01*
X11454948Y-7428906D01*
X10426455Y-7395833D01*
X9983169Y-7377813D01*
X9650492Y-7352130D01*
X9406751Y-7312554D01*
X9230271Y-7252854D01*
X9099378Y-7166800D01*
X8992397Y-7048160D01*
X8936371Y-6967484D01*
X8805674Y-6657953D01*
X8799753Y-6335555D01*
X8915281Y-6020438D01*
X9138741Y-5742187D01*
X9199490Y-5688191D01*
X9263080Y-5647192D01*
X9347827Y-5617102D01*
X9472047Y-5595834D01*
X9654057Y-5581297D01*
X9912172Y-5571405D01*
X10264709Y-5564069D01*
X10729984Y-5557200D01*
X10765599Y-5556706D01*
X12215625Y-5536589D01*
X12215625Y-6205208D01*
G36*
X15906712Y-5857942D02*
G01*
X15926705Y-6205208D01*
X14638129Y-6205208D01*
X14181306Y-6206706D01*
X13838907Y-6212088D01*
X13593090Y-6222683D01*
X13426013Y-6239822D01*
X13319832Y-6264835D01*
X13256705Y-6299053D01*
X13245741Y-6309020D01*
X13178108Y-6428857D01*
X13210271Y-6540531D01*
X13246984Y-6590609D01*
X13308778Y-6625626D01*
X13417056Y-6648239D01*
X13593220Y-6661106D01*
X13858671Y-6666883D01*
X14234812Y-6668229D01*
X14238685Y-6668229D01*
X14676740Y-6672600D01*
X15005441Y-6689862D01*
X15247555Y-6726242D01*
X15425852Y-6787963D01*
X15563101Y-6881251D01*
X15682069Y-7012330D01*
X15728860Y-7075644D01*
X15855291Y-7359134D01*
X15878964Y-7678585D01*
X15800086Y-7986897D01*
X15724242Y-8119382D01*
X15623869Y-8245517D01*
X15512930Y-8342275D01*
X15373147Y-8413482D01*
X15186243Y-8462962D01*
X14933939Y-8494540D01*
X14597957Y-8512040D01*
X14160020Y-8519287D01*
X13808247Y-8520312D01*
X12486203Y-8520312D01*
X12444010Y-8295407D01*
X12415300Y-8141177D01*
X12405175Y-8024958D01*
X12429090Y-7941113D01*
X12502499Y-7884006D01*
X12640857Y-7848003D01*
X12859617Y-7827468D01*
X13174233Y-7816765D01*
X13600161Y-7810258D01*
X13780890Y-7807896D01*
X14259104Y-7800056D01*
X14619726Y-7788852D01*
X14877458Y-7770923D01*
X15047000Y-7742909D01*
X15143054Y-7701453D01*
X15180318Y-7643195D01*
X15173495Y-7564775D01*
X15149962Y-7495052D01*
X15112888Y-7454497D01*
X15025021Y-7426326D01*
X14866801Y-7408517D01*
X14618668Y-7399045D01*
X14261063Y-7395887D01*
X14190799Y-7395833D01*
X13744530Y-7390335D01*
X13406767Y-7369824D01*
X13154030Y-7328277D01*
X12962838Y-7259671D01*
X12809711Y-7157983D01*
X12671169Y-7017188D01*
X12659021Y-7002877D01*
X12512425Y-6734449D01*
X12470999Y-6431418D01*
X12527709Y-6128659D01*
X12675516Y-5861044D01*
X12907386Y-5663447D01*
X12931908Y-5650406D01*
X13047349Y-5615539D01*
X13249530Y-5587476D01*
X13549792Y-5565383D01*
X13959474Y-5548431D01*
X14489914Y-5535788D01*
X14497656Y-5535648D01*
X15886719Y-5510677D01*
X15906712Y-5857942D01*
G37*
X15906712Y-5857942D02*
X15926705Y-6205208D01*
X14638129Y-6205208D01*
X14181306Y-6206706D01*
X13838907Y-6212088D01*
X13593090Y-6222683D01*
X13426013Y-6239822D01*
X13319832Y-6264835D01*
X13256705Y-6299053D01*
X13245741Y-6309020D01*
X13178108Y-6428857D01*
X13210271Y-6540531D01*
X13246984Y-6590609D01*
X13308778Y-6625626D01*
X13417056Y-6648239D01*
X13593220Y-6661106D01*
X13858671Y-6666883D01*
X14234812Y-6668229D01*
X14238685Y-6668229D01*
X14676740Y-6672600D01*
X15005441Y-6689862D01*
X15247555Y-6726242D01*
X15425852Y-6787963D01*
X15563101Y-6881251D01*
X15682069Y-7012330D01*
X15728860Y-7075644D01*
X15855291Y-7359134D01*
X15878964Y-7678585D01*
X15800086Y-7986897D01*
X15724242Y-8119382D01*
X15623869Y-8245517D01*
X15512930Y-8342275D01*
X15373147Y-8413482D01*
X15186243Y-8462962D01*
X14933939Y-8494540D01*
X14597957Y-8512040D01*
X14160020Y-8519287D01*
X13808247Y-8520312D01*
X12486203Y-8520312D01*
X12444010Y-8295407D01*
X12415300Y-8141177D01*
X12405175Y-8024958D01*
X12429090Y-7941113D01*
X12502499Y-7884006D01*
X12640857Y-7848003D01*
X12859617Y-7827468D01*
X13174233Y-7816765D01*
X13600161Y-7810258D01*
X13780890Y-7807896D01*
X14259104Y-7800056D01*
X14619726Y-7788852D01*
X14877458Y-7770923D01*
X15047000Y-7742909D01*
X15143054Y-7701453D01*
X15180318Y-7643195D01*
X15173495Y-7564775D01*
X15149962Y-7495052D01*
X15112888Y-7454497D01*
X15025021Y-7426326D01*
X14866801Y-7408517D01*
X14618668Y-7399045D01*
X14261063Y-7395887D01*
X14190799Y-7395833D01*
X13744530Y-7390335D01*
X13406767Y-7369824D01*
X13154030Y-7328277D01*
X12962838Y-7259671D01*
X12809711Y-7157983D01*
X12671169Y-7017188D01*
X12659021Y-7002877D01*
X12512425Y-6734449D01*
X12470999Y-6431418D01*
X12527709Y-6128659D01*
X12675516Y-5861044D01*
X12907386Y-5663447D01*
X12931908Y-5650406D01*
X13047349Y-5615539D01*
X13249530Y-5587476D01*
X13549792Y-5565383D01*
X13959474Y-5548431D01*
X14489914Y-5535788D01*
X14497656Y-5535648D01*
X15886719Y-5510677D01*
X15906712Y-5857942D01*
G36*
X16465495Y-5490683D02*
G01*
X16812760Y-5510677D01*
X16830539Y-7015494D01*
X16848317Y-8520312D01*
X16118229Y-8520312D01*
X16118229Y-5470690D01*
X16465495Y-5490683D01*
G37*
X16465495Y-5490683D02*
X16812760Y-5510677D01*
X16830539Y-7015494D01*
X16848317Y-8520312D01*
X16118229Y-8520312D01*
X16118229Y-5470690D01*
X16465495Y-5490683D01*
G36*
X20483854Y-5971656D02*
G01*
X20482125Y-6171879D01*
X20470146Y-6329765D01*
X20437732Y-6473812D01*
X20374697Y-6632515D01*
X20270856Y-6834372D01*
X20116023Y-7107879D01*
X20015672Y-7281493D01*
X19830890Y-7591922D01*
X19652930Y-7875231D01*
X19499589Y-8104120D01*
X19388662Y-8251290D01*
X19370436Y-8271307D01*
X19140089Y-8421953D01*
X18849607Y-8494517D01*
X18551458Y-8480355D01*
X18400260Y-8431119D01*
X18290284Y-8374634D01*
X18193525Y-8304512D01*
X18096191Y-8202726D01*
X17984493Y-8051250D01*
X17844641Y-7832057D01*
X17662843Y-7527122D01*
X17516566Y-7275977D01*
X17331131Y-6954362D01*
X17201966Y-6718925D01*
X17118897Y-6541450D01*
X17071750Y-6393720D01*
X17050350Y-6247520D01*
X17044524Y-6074632D01*
X17044271Y-5966140D01*
X17044271Y-5470690D01*
X17391536Y-5490683D01*
X17738802Y-5510677D01*
X17773237Y-5940625D01*
X17795605Y-6138663D01*
X17835979Y-6313886D01*
X17907172Y-6498467D01*
X18021995Y-6724581D01*
X18193257Y-7024399D01*
X18228920Y-7085035D01*
X18430035Y-7419132D01*
X18586262Y-7642294D01*
X18715504Y-7753714D01*
X18835666Y-7752586D01*
X18964653Y-7638103D01*
X19120368Y-7409458D01*
X19320717Y-7065843D01*
X19338254Y-7035042D01*
X19515829Y-6716344D01*
X19635666Y-6478975D01*
X19709714Y-6291814D01*
X19749920Y-6123741D01*
X19768233Y-5943635D01*
X19769981Y-5910563D01*
X19789323Y-5510677D01*
X20136589Y-5490683D01*
X20483854Y-5470690D01*
X20483854Y-5971656D01*
G37*
X20483854Y-5971656D02*
X20482125Y-6171879D01*
X20470146Y-6329765D01*
X20437732Y-6473812D01*
X20374697Y-6632515D01*
X20270856Y-6834372D01*
X20116023Y-7107879D01*
X20015672Y-7281493D01*
X19830890Y-7591922D01*
X19652930Y-7875231D01*
X19499589Y-8104120D01*
X19388662Y-8251290D01*
X19370436Y-8271307D01*
X19140089Y-8421953D01*
X18849607Y-8494517D01*
X18551458Y-8480355D01*
X18400260Y-8431119D01*
X18290284Y-8374634D01*
X18193525Y-8304512D01*
X18096191Y-8202726D01*
X17984493Y-8051250D01*
X17844641Y-7832057D01*
X17662843Y-7527122D01*
X17516566Y-7275977D01*
X17331131Y-6954362D01*
X17201966Y-6718925D01*
X17118897Y-6541450D01*
X17071750Y-6393720D01*
X17050350Y-6247520D01*
X17044524Y-6074632D01*
X17044271Y-5966140D01*
X17044271Y-5470690D01*
X17391536Y-5490683D01*
X17738802Y-5510677D01*
X17773237Y-5940625D01*
X17795605Y-6138663D01*
X17835979Y-6313886D01*
X17907172Y-6498467D01*
X18021995Y-6724581D01*
X18193257Y-7024399D01*
X18228920Y-7085035D01*
X18430035Y-7419132D01*
X18586262Y-7642294D01*
X18715504Y-7753714D01*
X18835666Y-7752586D01*
X18964653Y-7638103D01*
X19120368Y-7409458D01*
X19320717Y-7065843D01*
X19338254Y-7035042D01*
X19515829Y-6716344D01*
X19635666Y-6478975D01*
X19709714Y-6291814D01*
X19749920Y-6123741D01*
X19768233Y-5943635D01*
X19769981Y-5910563D01*
X19789323Y-5510677D01*
X20136589Y-5490683D01*
X20483854Y-5470690D01*
X20483854Y-5971656D01*
G36*
X23460417Y-6205208D02*
G01*
X21409896Y-6205208D01*
X21409896Y-6668229D01*
X23394271Y-6668229D01*
X23394271Y-7329687D01*
X21409896Y-7329687D01*
X21409896Y-7792708D01*
X23460417Y-7792708D01*
X23460417Y-8520312D01*
X22115451Y-8520312D01*
X21706376Y-8518236D01*
X21343051Y-8512442D01*
X21045981Y-8503580D01*
X20835672Y-8492303D01*
X20732630Y-8479260D01*
X20726389Y-8476215D01*
X20713630Y-8400024D01*
X20702319Y-8211035D01*
X20693021Y-7928741D01*
X20686302Y-7572631D01*
X20682726Y-7162198D01*
X20682292Y-6954861D01*
X20682292Y-5477604D01*
X23460417Y-5477604D01*
X23460417Y-6205208D01*
G37*
X23460417Y-6205208D02*
X21409896Y-6205208D01*
X21409896Y-6668229D01*
X23394271Y-6668229D01*
X23394271Y-7329687D01*
X21409896Y-7329687D01*
X21409896Y-7792708D01*
X23460417Y-7792708D01*
X23460417Y-8520312D01*
X22115451Y-8520312D01*
X21706376Y-8518236D01*
X21343051Y-8512442D01*
X21045981Y-8503580D01*
X20835672Y-8492303D01*
X20732630Y-8479260D01*
X20726389Y-8476215D01*
X20713630Y-8400024D01*
X20702319Y-8211035D01*
X20693021Y-7928741D01*
X20686302Y-7572631D01*
X20682726Y-7162198D01*
X20682292Y-6954861D01*
X20682292Y-5477604D01*
X23460417Y-5477604D01*
X23460417Y-6205208D01*
%TD*%
M02*
